<?xml version="1.0" encoding="UTF-8"?>
<svg version="1.1" xmlns="http://www.w3.org/2000/svg" width="512" height="512">
<path d="M0 0 C0.99 0 1.98 0 3 0 C3 0.66 3 1.32 3 2 C3.66 2 4.32 2 5 2 C5 2.66 5 3.32 5 4 C5.66 4 6.32 4 7 4 C7 4.66 7 5.32 7 6 C8.32 6.33 9.64 6.66 11 7 C11 7.66 11 8.32 11 9 C11.66 9 12.32 9 13 9 C13.33 10.32 13.66 11.64 14 13 C14.66 13 15.32 13 16 13 C16 13.66 16 14.32 16 15 C16.66 15 17.32 15 18 15 C18 15.66 18 16.32 18 17 C19.32 17.33 20.64 17.66 22 18 C22 18.66 22 19.32 22 20 C22.66 20 23.32 20 24 20 C24 20.66 24 21.32 24 22 C24.99 22 25.98 22 27 22 C27 22.66 27 23.32 27 24 C27.66 24 28.32 24 29 24 C29 24.66 29 25.32 29 26 C29.66 26 30.32 26 31 26 C31 26.66 31 27.32 31 28 C31.66 28 32.32 28 33 28 C33 28.66 33 29.32 33 30 C33.639375 30.268125 34.27875 30.53625 34.9375 30.8125 C37 32 37 32 38 35 C38.66 35 39.32 35 40 35 C40 35.66 40 36.32 40 37 C40.66 37 41.32 37 42 37 C42 37.66 42 38.32 42 39 C42.66 39 43.32 39 44 39 C44 39.66 44 40.32 44 41 C44.639375 41.268125 45.27875 41.53625 45.9375 41.8125 C48 43 48 43 49 46 C49.66 46 50.32 46 51 46 C51 46.66 51 47.32 51 48 C51.66 48 52.32 48 53 48 C53 48.66 53 49.32 53 50 C53.66 50 54.32 50 55 50 C55 50.66 55 51.32 55 52 C55.66 52 56.32 52 57 52 C57 52.66 57 53.32 57 54 C57.639375 54.268125 58.27875 54.53625 58.9375 54.8125 C61 56 61 56 62 59 C62.66 59 63.32 59 64 59 C64 59.66 64 60.32 64 61 C65.32 61 66.64 61 68 61 C68 61.66 68 62.32 68 63 C68.66 63 69.32 63 70 63 C73 67.38461538 73 67.38461538 73 70 C73.66 70 74.32 70 75 70 C75 70.66 75 71.32 75 72 C75.66 72 76.32 72 77 72 C77 72.66 77 73.32 77 74 C77.99 74 78.98 74 80 74 C80 74.66 80 75.32 80 76 C80.99 76 81.98 76 83 76 C84.6875 77.25 84.6875 77.25 86 79 C86 80.32 86 81.64 86 83 C86.66 83 87.32 83 88 83 C88 83.66 88 84.32 88 85 C88.66 85 89.32 85 90 85 C90 85.66 90 86.32 90 87 C90.66 87 91.32 87 92 87 C92 87.66 92 88.32 92 89 C93.65 89.33 95.3 89.66 97 90 C97 90.66 97 91.32 97 92 C97.66 92 98.32 92 99 92 C99 92.66 99 93.32 99 94 C99.66 94 100.32 94 101 94 C101 94.66 101 95.32 101 96 C101.66 96 102.32 96 103 96 C103 96.66 103 97.32 103 98 C103.66 98 104.32 98 105 98 C105 98.66 105 99.32 105 100 C106.485 100.495 106.485 100.495 108 101 C108 101.66 108 102.32 108 103 C108.66 103 109.32 103 110 103 C110 103.66 110 104.32 110 105 C110.66 105 111.32 105 112 105 C112 105.66 112 106.32 112 107 C112.66 107 113.32 107 114 107 C114 107.66 114 108.32 114 109 C114.66 109 115.32 109 116 109 C116 109.66 116 110.32 116 111 C116.66 111 117.32 111 118 111 C119.625 112.375 119.625 112.375 121 114 C121 114.66 121 115.32 121 116 C121.66 116 122.32 116 123 116 C123 116.66 123 117.32 123 118 C123.66 118 124.32 118 125 118 C125 118.66 125 119.32 125 120 C126.32 120.33 127.64 120.66 129 121 C129 121.99 129 122.98 129 124 C129.99 124.33 130.98 124.66 132 125 C132 125.66 132 126.32 132 127 C132.66 127 133.32 127 134 127 C134 127.66 134 128.32 134 129 C134.66 129 135.32 129 136 129 C136 129.66 136 130.32 136 131 C136.66 131 137.32 131 138 131 C138 131.66 138 132.32 138 133 C138.99 133 139.98 133 141 133 C141 133.66 141 134.32 141 135 C141.66 135 142.32 135 143 135 C143 135.99 143 136.98 143 138 C144.32 138.33 145.64 138.66 147 139 C147 139.99 147 140.98 147 142 C147.66 142 148.32 142 149 142 C149 142.66 149 143.32 149 144 C149.66 144 150.32 144 151 144 C151 144.66 151 145.32 151 146 C151.99 146 152.98 146 154 146 C154 146.66 154 147.32 154 148 C155.32 148.33 156.64 148.66 158 149 C158 149.66 158 150.32 158 151 C158.66 151 159.32 151 160 151 C160 151.66 160 152.32 160 153 C160.66 153 161.32 153 162 153 C162 154.32 162 155.64 162 157 C162.66 157 163.32 157 164 157 C164 157.66 164 158.32 164 159 C164.598125 159.12375 165.19625 159.2475 165.8125 159.375 C168 160 168 160 171 162 C171 162.66 171 163.32 171 164 C171.66 164 172.32 164 173 164 C173 164.66 173 165.32 173 166 C173.66 166 174.32 166 175 166 C175 166.66 175 167.32 175 168 C175.66 168 176.32 168 177 168 C177.61875 168.9590625 177.61875 168.9590625 178.25 169.9375 C180.59697894 172.70358232 182.48008781 172.68711892 186 173 C186 172.34 186 171.68 186 171 C187.375 169.375 187.375 169.375 189 168 C189.66 168 190.32 168 191 168 C191 167.34 191 166.68 191 166 C191.66 166 192.32 166 193 166 C193.66 164.68 194.32 163.36 195 162 C195.66 162 196.32 162 197 162 C197 161.34 197 160.68 197 160 C198.32 159.67 199.64 159.34 201 159 C201.33 157.68 201.66 156.36 202 155 C202.66 155 203.32 155 204 155 C204 154.34 204 153.68 204 153 C204.66 153 205.32 153 206 153 C206 152.34 206 151.68 206 151 C206.66 151 207.32 151 208 151 C208 150.34 208 149.68 208 149 C209.32 148.67 210.64 148.34 212 148 C212.33 146.68 212.66 145.36 213 144 C213.66 144 214.32 144 215 144 C215 143.34 215 142.68 215 142 C215.66 142 216.32 142 217 142 C217 141.34 217 140.68 217 140 C217.66 140 218.32 140 219 140 C219 139.34 219 138.68 219 138 C219.66 138 220.32 138 221 138 C221 137.34 221 136.68 221 136 C222.32 135.67 223.64 135.34 225 135 C225.04125 134.38125 225.0825 133.7625 225.125 133.125 C225.558125 132.073125 225.558125 132.073125 226 131 C229.0625 129.75 229.0625 129.75 232 129 C232 128.34 232 127.68 232 127 C232.66 127 233.32 127 234 127 C234 126.01 234 125.02 234 124 C234.66 124 235.32 124 236 124 C236.33 122.68 236.66 121.36 237 120 C237.99 120 238.98 120 240 120 C240 119.34 240 118.68 240 118 C240.99 118 241.98 118 243 118 C243 117.34 243 116.68 243 116 C243.66 116 244.32 116 245 116 C245 115.34 245 114.68 245 114 C245.66 114 246.32 114 247 114 C247 113.34 247 112.68 247 112 C245.68 111.67 244.36 111.34 243 111 C243 110.34 243 109.68 243 109 C242.34 109 241.68 109 241 109 C241 108.34 241 107.68 241 107 C240.34 107 239.68 107 239 107 C239 106.34 239 105.68 239 105 C238.34 105 237.68 105 237 105 C236.67 103.68 236.34 102.36 236 101 C234.68 100.67 233.36 100.34 232 100 C232 99.34 232 98.68 232 98 C231.34 98 230.68 98 230 98 C230 97.34 230 96.68 230 96 C229.34 96 228.68 96 228 96 C228 95.34 228 94.68 228 94 C227.34 94 226.68 94 226 94 C226 93.34 226 92.68 226 92 C225.34 92 224.68 92 224 92 C222.375 90.625 222.375 90.625 221 89 C221 88.34 221 87.68 221 87 C220.34 87 219.68 87 219 87 C219 86.34 219 85.68 219 85 C218.34 85 217.68 85 217 85 C217 84.34 217 83.68 217 83 C216.01 83 215.02 83 214 83 C213.67 81.68 213.34 80.36 213 79 C212.01 79 211.02 79 210 79 C210 78.34 210 77.68 210 77 C209.34 77 208.68 77 208 77 C208 76.01 208 75.02 208 74 C207.34 74 206.68 74 206 74 C206 73.34 206 72.68 206 72 C205.360625 71.896875 204.72125 71.79375 204.0625 71.6875 C203.381875 71.460625 202.70125 71.23375 202 71 C201.67 70.01 201.34 69.02 201 68 C200.34 68 199.68 68 199 68 C199 67.34 199 66.68 199 66 C198.38125 65.690625 197.7625 65.38125 197.125 65.0625 C195.75 64.375 194.375 63.6875 193 63 C193 62.34 193 61.68 193 61 C192.34 61 191.68 61 191 61 C190.67 59.68 190.34 58.36 190 57 C189.34 57 188.68 57 188 57 C188 56.34 188 55.68 188 55 C187.34 55 186.68 55 186 55 C186 54.34 186 53.68 186 53 C184.68 52.67 183.36 52.34 182 52 C182 51.34 182 50.68 182 50 C181.34 50 180.68 50 180 50 C180 49.34 180 48.68 180 48 C179.34 48 178.68 48 178 48 C177.67 46.68 177.34 45.36 177 44 C176.34 44 175.68 44 175 44 C175 43.34 175 42.68 175 42 C173.68 41.67 172.36 41.34 171 41 C171 40.34 171 39.68 171 39 C170.34 39 169.68 39 169 39 C169 38.34 169 37.68 169 37 C168.34 37 167.68 37 167 37 C166.67 35.68 166.34 34.36 166 33 C164.68 33 163.36 33 162 33 C162 32.01 162 31.02 162 30 C161.34 30 160.68 30 160 30 C160 29.34 160 28.68 160 28 C159.34 28 158.68 28 158 28 C158 27.34 158 26.68 158 26 C157.01 26 156.02 26 155 26 C154.67 24.68 154.34 23.36 154 22 C153.01 22 152.02 22 151 22 C151 21.34 151 20.68 151 20 C150.34 20 149.68 20 149 20 C149 19.01 149 18.02 149 17 C148.34 17 147.68 17 147 17 C147 13.7 147 10.4 147 7 C147.66 7 148.32 7 149 7 C149 6.01 149 5.02 149 4 C149.66 4 150.32 4 151 4 C151 3.34 151 2.68 151 2 C155.29 2 159.58 2 164 2 C164 2.66 164 3.32 164 4 C164.99 4 165.98 4 167 4 C167 4.99 167 5.98 167 7 C167.66 7 168.32 7 169 7 C169 7.66 169 8.32 169 9 C169.66 9 170.32 9 171 9 C171 9.66 171 10.32 171 11 C171.66 11 172.32 11 173 11 C173 11.66 173 12.32 173 13 C173.66 13 174.32 13 175 13 C175 13.66 175 14.32 175 15 C175.99 15 176.98 15 178 15 C178 15.66 178 16.32 178 17 C178.61875 17.309375 179.2375 17.61875 179.875 17.9375 C181.25 18.625 182.625 19.3125 184 20 C184 20.66 184 21.32 184 22 C184.66 22 185.32 22 186 22 C186 22.66 186 23.32 186 24 C186.66 24 187.32 24 188 24 C188.33 25.32 188.66 26.64 189 28 C189.66 28 190.32 28 191 28 C191 28.66 191 29.32 191 30 C192.32 30.33 193.64 30.66 195 31 C195 31.66 195 32.32 195 33 C195.66 33 196.32 33 197 33 C197 33.66 197 34.32 197 35 C197.66 35 198.32 35 199 35 C199 35.66 199 36.32 199 37 C200.65 37.66 202.3 38.32 204 39 C204 39.99 204 40.98 204 42 C205.32 42.66 206.64 43.32 208 44 C208 44.66 208 45.32 208 46 C208.66 46 209.32 46 210 46 C210 46.66 210 47.32 210 48 C210.66 48 211.32 48 212 48 C212.04125 48.61875 212.0825 49.2375 212.125 49.875 C212.558125 50.926875 212.558125 50.926875 213 52 C215.99615946 53.3045656 215.99615946 53.3045656 219 54 C219 54.99 219 55.98 219 57 C219.66 57 220.32 57 221 57 C221 57.66 221 58.32 221 59 C221.99 59 222.98 59 224 59 C224 60.32 224 61.64 224 63 C224.66 63 225.32 63 226 63 C226 63.66 226 64.32 226 65 C227.32 65.33 228.64 65.66 230 66 C230 66.66 230 67.32 230 68 C230.66 68 231.32 68 232 68 C232 68.66 232 69.32 232 70 C232.99 70 233.98 70 235 70 C235 70.66 235 71.32 235 72 C235.66 72 236.32 72 237 72 C237 72.66 237 73.32 237 74 C237.66 74 238.32 74 239 74 C239 74.66 239 75.32 239 76 C239.556875 76.226875 240.11375 76.45375 240.6875 76.6875 C243.66159588 78.37550036 245.72008865 80.46676517 248 83 C248 83.66 248 84.32 248 85 C248.66 85 249.32 85 250 85 C250 85.66 250 86.32 250 87 C250.66 87 251.32 87 252 87 C252 87.66 252 88.32 252 89 C252.78375 89.226875 253.5675 89.45375 254.375 89.6875 C257 91 257 91 258.3125 93.625 C258.539375 94.40875 258.76625 95.1925 259 96 C259.66 96 260.32 96 261 96 C261 96.66 261 97.32 261 98 C261.66 98 262.32 98 263 98 C263 97.34 263 96.68 263 96 C263.66 96 264.32 96 265 96 C265 95.34 265 94.68 265 94 C265.66 94 266.32 94 267 94 C267 93.34 267 92.68 267 92 C267.66 92 268.32 92 269 92 C269 91.34 269 90.68 269 90 C270.375 88.375 270.375 88.375 272 87 C272.66 87 273.32 87 274 87 C274 86.34 274 85.68 274 85 C274.66 85 275.32 85 276 85 C276 84.34 276 83.68 276 83 C276.66 83 277.32 83 278 83 C278 82.34 278 81.68 278 81 C278.66 81 279.32 81 280 81 C280 80.34 280 79.68 280 79 C282.375 76.375 282.375 76.375 285 74 C285.66 74 286.32 74 287 74 C287 73.34 287 72.68 287 72 C288.32 72 289.64 72 291 72 C291 71.34 291 70.68 291 70 C291.66 70 292.32 70 293 70 C293.309375 69.21625 293.61875 68.4325 293.9375 67.625 C295 65 295 65 296 63 C296.66 63 297.32 63 298 63 C298 62.34 298 61.68 298 61 C298.66 61 299.32 61 300 61 C300 60.34 300 59.68 300 59 C301.32 59 302.64 59 304 59 C304 58.34 304 57.68 304 57 C304.66 57 305.32 57 306 57 C306.268125 56.360625 306.53625 55.72125 306.8125 55.0625 C308 53 308 53 311 52 C311 51.34 311 50.68 311 50 C311.66 50 312.32 50 313 50 C313 48.68 313 47.36 313 46 C314.32 46 315.64 46 317 46 C317.268125 45.360625 317.53625 44.72125 317.8125 44.0625 C319 42 319 42 322 41 C322 40.34 322 39.68 322 39 C322.66 39 323.32 39 324 39 C324 38.34 324 37.68 324 37 C324.66 37 325.32 37 326 37 C326.0825 36.401875 326.165 35.80375 326.25 35.1875 C327.21576779 32.37067727 328.48868567 31.52200868 331 30 C331.66 30 332.32 30 333 30 C333 29.34 333 28.68 333 28 C333.66 28 334.32 28 335 28 C335 27.34 335 26.68 335 26 C335.66 26 336.32 26 337 26 C337 25.34 337 24.68 337 24 C337.66 24 338.32 24 339 24 C339 23.34 339 22.68 339 22 C339.66 22 340.32 22 341 22 C341.33 20.68 341.66 19.36 342 18 C343.98 17.505 343.98 17.505 346 17 C346 16.34 346 15.68 346 15 C346.66 15 347.32 15 348 15 C348 14.34 348 13.68 348 13 C348.66 13 349.32 13 350 13 C350 12.34 350 11.68 350 11 C350.66 11 351.32 11 352 11 C352.4021875 10.0409375 352.4021875 10.0409375 352.8125 9.0625 C354 7 354 7 357 6 C357 5.34 357 4.68 357 4 C357.66 4 358.32 4 359 4 C359 3.34 359 2.68 359 2 C359.66 2 360.32 2 361 2 C361 1.34 361 0.68 361 0 C364.96 0 368.92 0 373 0 C373.33 1.32 373.66 2.64 374 4 C374.66 4 375.32 4 376 4 C377.32229189 6.64458379 377.09677194 8.67761301 377.0625 11.625 C377.05347656 12.62789062 377.04445313 13.63078125 377.03515625 14.6640625 C377.01775391 15.82035156 377.01775391 15.82035156 377 17 C376.01 17.33 375.02 17.66 374 18 C374 18.66 374 19.32 374 20 C373.34 20 372.68 20 372 20 C372 20.66 372 21.32 372 22 C371.34 22 370.68 22 370 22 C370 22.66 370 23.32 370 24 C369.34 24 368.68 24 368 24 C368 24.66 368 25.32 368 26 C367.34 26 366.68 26 366 26 C366 26.66 366 27.32 366 28 C364.625 29.625 364.625 29.625 363 31 C362.34 31 361.68 31 361 31 C361 31.66 361 32.32 361 33 C360.34 33 359.68 33 359 33 C359 33.66 359 34.32 359 35 C358.34 35 357.68 35 357 35 C357 35.66 357 36.32 357 37 C356.34 37 355.68 37 355 37 C355 37.66 355 38.32 355 39 C354.34 39 353.68 39 353 39 C352.67 39.99 352.34 40.98 352 42 C351.34 42 350.68 42 350 42 C350 42.66 350 43.32 350 44 C349.34 44 348.68 44 348 44 C348 44.66 348 45.32 348 46 C347.34 46 346.68 46 346 46 C346 46.66 346 47.32 346 48 C345.34 48 344.68 48 344 48 C344 48.66 344 49.32 344 50 C343.34 50 342.68 50 342 50 C342 50.66 342 51.32 342 52 C340.625 53.625 340.625 53.625 339 55 C338.34 55 337.68 55 337 55 C337 55.66 337 56.32 337 57 C336.34 57 335.68 57 335 57 C335 57.66 335 58.32 335 59 C334.34 59 333.68 59 333 59 C333 59.66 333 60.32 333 61 C332.34 61 331.68 61 331 61 C331 61.66 331 62.32 331 63 C329.625 64.625 329.625 64.625 328 66 C327.34 66 326.68 66 326 66 C326 66.66 326 67.32 326 68 C325.34 68 324.68 68 324 68 C324 68.66 324 69.32 324 70 C322.68 70 321.36 70 320 70 C320 70.66 320 71.32 320 72 C319.34 72 318.68 72 318 72 C317.67 73.65 317.34 75.3 317 77 C315.68 77 314.36 77 313 77 C313 78.32 313 79.64 313 81 C310 83 310 83 307 83 C306.67 84.32 306.34 85.64 306 87 C305.34 87 304.68 87 304 87 C303.5978125 88.2065625 303.5978125 88.2065625 303.1875 89.4375 C302.795625 90.283125 302.40375 91.12875 302 92 C300.515 92.495 300.515 92.495 299 93 C298.67 93.99 298.34 94.98 298 96 C296.68 96 295.36 96 294 96 C293.67 97.32 293.34 98.64 293 100 C291.68 100.33 290.36 100.66 289 101 C289 101.66 289 102.32 289 103 C288.34 103 287.68 103 287 103 C287 103.66 287 104.32 287 105 C286.34 105 285.68 105 285 105 C285 105.66 285 106.32 285 107 C284.34 107 283.68 107 283 107 C282.67 108.32 282.34 109.64 282 111 C280.68 111.33 279.36 111.66 278 112 C278 112.66 278 113.32 278 114 C278.66 114 279.32 114 280 114 C280 114.66 280 115.32 280 116 C280.99 116 281.98 116 283 116 C283 116.66 283 117.32 283 118 C283.66 118 284.32 118 285 118 C285 118.66 285 119.32 285 120 C285.66 120 286.32 120 287 120 C287 120.66 287 121.32 287 122 C287.598125 122.0825 288.19625 122.165 288.8125 122.25 C291.62932273 123.21576779 292.47799132 124.48868567 294 127 C294 127.66 294 128.32 294 129 C294.66 129 295.32 129 296 129 C296 129.66 296 130.32 296 131 C296.66 131 297.32 131 298 131 C298 131.66 298 132.32 298 133 C298.66 133 299.32 133 300 133 C300 132.34 300 131.68 300 131 C300.66 131 301.32 131 302 131 C302 130.34 302 129.68 302 129 C302.66 129 303.32 129 304 129 C304 128.34 304 127.68 304 127 C304.66 127 305.32 127 306 127 C306.33 126.01 306.66 125.02 307 124 C307.66 124 308.32 124 309 124 C309 123.34 309 122.68 309 122 C309.66 122 310.32 122 311 122 C311 121.34 311 120.68 311 120 C311.66 120 312.32 120 313 120 C313 119.34 313 118.68 313 118 C313.66 118 314.32 118 315 118 C315 117.34 315 116.68 315 116 C315.66 116 316.32 116 317 116 C317.33 115.01 317.66 114.02 318 113 C318.66 113 319.32 113 320 113 C320 112.34 320 111.68 320 111 C320.66 111 321.32 111 322 111 C322 110.34 322 109.68 322 109 C322.66 109 323.32 109 324 109 C324 108.34 324 107.68 324 107 C324.66 107 325.32 107 326 107 C326 106.34 326 105.68 326 105 C326.66 105 327.32 105 328 105 C328 104.34 328 103.68 328 103 C331.78083258 100.47944495 335.61718019 100.53297822 340 101 C342.5 102 342.5 102 344 103 C344 103.66 344 104.32 344 105 C344.66 105 345.32 105 346 105 C346 106.32 346 107.64 346 109 C346.66 109 347.32 109 348 109 C348 109.66 348 110.32 348 111 C348.66 111 349.32 111 350 111 C350 195.48 350 279.96 350 367 C349.34 367 348.68 367 348 367 C348 367.66 348 368.32 348 369 C347.34 369 346.68 369 346 369 C346 369.66 346 370.32 346 371 C343.03 371 340.06 371 337 371 C337 370.34 337 369.68 337 369 C336.34 369 335.68 369 335 369 C335 368.34 335 367.68 335 367 C334.34 367 333.68 367 333 367 C331.04316505 362.89095554 330.7457856 359.57147024 330.73498535 355.04098511 C330.73060408 354.35279288 330.72622281 353.66460066 330.72170877 352.95555413 C330.70941586 350.65633791 330.71119499 348.35735069 330.71289062 346.05810547 C330.70686485 344.40708072 330.6999402 342.75605904 330.69218445 341.1050415 C330.67730727 337.55339534 330.66854929 334.00180528 330.66447449 330.45013046 C330.6577598 324.83682384 330.63600551 319.22363744 330.61193848 313.61038208 C330.55881719 300.68465474 330.52540954 287.75889041 330.49217987 274.83309937 C330.46151384 262.9808434 330.42672003 251.12863908 330.37586927 239.27645028 C330.35248744 233.69336711 330.33877161 228.11036784 330.33237457 222.52724051 C330.32644878 219.05922547 330.3123641 215.59127879 330.29603004 212.12329865 C330.29013961 210.51200622 330.28768481 208.90069713 330.28886986 207.28939438 C330.29002423 205.09446579 330.27905163 202.89992379 330.26501465 200.70504761 C330.26208153 199.47541731 330.25914841 198.24578701 330.2561264 196.97889519 C330.22493722 193.81590632 330.22493722 193.81590632 328 191 C328 190.01 328 189.02 328 188 C326.68 188 325.36 188 324 188 C324 187.34 324 186.68 324 186 C323.34 186 322.68 186 322 186 C322 185.34 322 184.68 322 184 C321.360625 183.731875 320.72125 183.46375 320.0625 183.1875 C318 182 318 182 317 179 C316.34 179 315.68 179 315 179 C315 178.34 315 177.68 315 177 C314.34 177 313.68 177 313 177 C313 176.34 313 175.68 313 175 C312.34 175 311.68 175 311 175 C311 174.34 311 173.68 311 173 C310.34 173 309.68 173 309 173 C309 172.34 309 171.68 309 171 C308.01 170.67 307.02 170.34 306 170 C305.875 164.25 305.875 164.25 307 162 C307.66 162 308.32 162 309 162 C309 161.34 309 160.68 309 160 C310.32 159.67 311.64 159.34 313 159 C313 158.34 313 157.68 313 157 C313.66 157 314.32 157 315 157 C315 156.34 315 155.68 315 155 C315.66 155 316.32 155 317 155 C317 154.34 317 153.68 317 153 C318.65 153 320.3 153 322 153 C322 153.66 322 154.32 322 155 C322.66 155 323.32 155 324 155 C324 155.66 324 156.32 324 157 C324.66 157 325.32 157 326 157 C326 157.66 326 158.32 326 159 C326.99 159.33 327.98 159.66 329 160 C329 160.66 329 161.32 329 162 C329.66 162 330.32 162 331 162 C331 151.77 331 141.54 331 131 C330.34 131 329.68 131 329 131 C328.731875 131.639375 328.46375 132.27875 328.1875 132.9375 C327 135 327 135 324 136 C324 136.66 324 137.32 324 138 C323.34 138 322.68 138 322 138 C322 138.66 322 139.32 322 140 C321.34 140 320.68 140 320 140 C320 140.66 320 141.32 320 142 C319.34 142 318.68 142 318 142 C318 142.66 318 143.32 318 144 C316.5390625 145.2890625 316.5390625 145.2890625 314.625 146.625 C313.99851562 147.07101563 313.37203125 147.51703125 312.7265625 147.9765625 C311 149 311 149 309 149 C309 149.66 309 150.32 309 151 C308.34 151 307.68 151 307 151 C306.67 152.32 306.34 153.64 306 155 C305.34 155 304.68 155 304 155 C304 155.66 304 156.32 304 157 C303.34 157 302.68 157 302 157 C302 157.66 302 158.32 302 159 C300.68 159.33 299.36 159.66 298 160 C298 160.66 298 161.32 298 162 C297.34 162 296.68 162 296 162 C296 162.66 296 163.32 296 164 C295.34 164 294.68 164 294 164 C293.67 165.32 293.34 166.64 293 168 C292.34 168 291.68 168 291 168 C291 168.66 291 169.32 291 170 C289.68 170.33 288.36 170.66 287 171 C287 171.66 287 172.32 287 173 C286.34 173 285.68 173 285 173 C285 173.66 285 174.32 285 175 C284.34 175 283.68 175 283 175 C282.7525 175.5775 282.505 176.155 282.25 176.75 C280.78497722 179.38704101 279.32497923 181.07358864 277 183 C274.25 183.75 274.25 183.75 272 184 C271.67 185.32 271.34 186.64 271 188 C270.34 188 269.68 188 269 188 C269 188.66 269 189.32 269 190 C268.34 190 267.68 190 267 190 C267 190.66 267 191.32 267 192 C266.34 192 265.68 192 265 192 C265 192.66 265 193.32 265 194 C263.68 194.33 262.36 194.66 261 195 C261 195.66 261 196.32 261 197 C260.34 197 259.68 197 259 197 C258.67 198.32 258.34 199.64 258 201 C257.34 201 256.68 201 256 201 C256 201.66 256 202.32 256 203 C255.34 203 254.68 203 254 203 C254 203.66 254 204.32 254 205 C250.53846154 208 250.53846154 208 248 208 C247.67 209.32 247.34 210.64 247 212 C246.34 212 245.68 212 245 212 C245 212.66 245 213.32 245 214 C244.34 214 243.68 214 243 214 C243 214.66 243 215.32 243 216 C242.34 216 241.68 216 241 216 C241 216.66 241 217.32 241 218 C240.38125 218.0825 239.7625 218.165 239.125 218.25 C236.83911206 218.80583476 236.83911206 218.80583476 235.8125 220.9375 C235.544375 221.618125 235.27625 222.29875 235 223 C234.67 223.66 234.34 224.32 234 225 C233.34 225 232.68 225 232 225 C232 225.66 232 226.32 232 227 C230.20963542 227.94401042 228.41927083 228.88802083 226.62890625 229.83203125 C224.67732013 230.99019799 224.67732013 230.99019799 224 234 C223.34 234 222.68 234 222 234 C222 234.66 222 235.32 222 236 C221.01 236 220.02 236 219 236 C219 236.66 219 237.32 219 238 C218.34 238 217.68 238 217 238 C217 238.66 217 239.32 217 240 C216.34 240 215.68 240 215 240 C215 240.66 215 241.32 215 242 C213.625 243.625 213.625 243.625 212 245 C211.34 245 210.68 245 210 245 C210 245.66 210 246.32 210 247 C209.34 247 208.68 247 208 247 C208 247.66 208 248.32 208 249 C207.34 249 206.68 249 206 249 C206 249.99 206 250.98 206 252 C202.34387956 254.33991708 199.26792624 254.37437949 195 254 C190.4 251.8 190.4 251.8 189 249 C188.93049459 247.45976004 188.91547643 245.91665012 188.9375 244.375 C188.94652344 243.55773437 188.95554687 242.74046875 188.96484375 241.8984375 C188.98224609 240.95871094 188.98224609 240.95871094 189 240 C189.66 240 190.32 240 191 240 C191 238.68 191 237.36 191 236 C191.66 236 192.32 236 193 236 C193 235.34 193 234.68 193 234 C193.66 234 194.32 234 195 234 C195 233.34 195 232.68 195 232 C196.32 231.67 197.64 231.34 199 231 C199 230.34 199 229.68 199 229 C199.66 229 200.32 229 201 229 C201 228.34 201 227.68 201 227 C202.8125 224.875 202.8125 224.875 205 223 C205.99 223 206.98 223 208 223 C208 222.34 208 221.68 208 221 C208.66 221 209.32 221 210 221 C210 220.34 210 219.68 210 219 C210.66 219 211.32 219 212 219 C212 218.01 212 217.02 212 216 C212.99 216 213.98 216 215 216 C215 215.34 215 214.68 215 214 C215.66 214 216.32 214 217 214 C217 213.34 217 212.68 217 212 C217.66 212 218.32 212 219 212 C219 211.34 219 210.68 219 210 C219.66 210 220.32 210 221 210 C221 209.34 221 208.68 221 208 C222.375 206.375 222.375 206.375 224 205 C224.66 205 225.32 205 226 205 C226 204.34 226 203.68 226 203 C226.66 203 227.32 203 228 203 C228 202.34 228 201.68 228 201 C228.66 201 229.32 201 230 201 C230 200.34 230 199.68 230 199 C230.66 199 231.32 199 232 199 C232 198.34 232 197.68 232 197 C232.66 197 233.32 197 234 197 C234 196.34 234 195.68 234 195 C235.375 193.375 235.375 193.375 237 192 C237.66 192 238.32 192 239 192 C239 191.34 239 190.68 239 190 C239.66 190 240.32 190 241 190 C241 189.34 241 188.68 241 188 C241.66 188 242.32 188 243 188 C243 187.34 243 186.68 243 186 C243.66 186 244.32 186 245 186 C245 185.34 245 184.68 245 184 C246.375 182.375 246.375 182.375 248 181 C248.66 181 249.32 181 250 181 C250 180.34 250 179.68 250 179 C250.66 179 251.32 179 252 179 C252 178.34 252 177.68 252 177 C252.66 177 253.32 177 254 177 C254 176.34 254 175.68 254 175 C254.66 175 255.32 175 256 175 C256 174.34 256 173.68 256 173 C258.375 170.375 258.375 170.375 261 168 C261.66 168 262.32 168 263 168 C263 167.34 263 166.68 263 166 C263.66 166 264.32 166 265 166 C265 165.34 265 164.68 265 164 C265.66 164 266.32 164 267 164 C267 163.34 267 162.68 267 162 C267.66 162 268.32 162 269 162 C269 161.34 269 160.68 269 160 C269.61875 159.9175 270.2375 159.835 270.875 159.75 C273.16088794 159.19416524 273.16088794 159.19416524 274.1875 157.0625 C274.455625 156.381875 274.72375 155.70125 275 155 C275.33 154.34 275.66 153.68 276 153 C276.66 153 277.32 153 278 153 C278 152.34 278 151.68 278 151 C279.32 151 280.64 151 282 151 C282 149.68 282 148.36 282 147 C281.34 146.67 280.68 146.34 280 146 C280 145.34 280 144.68 280 144 C279.34 144 278.68 144 278 144 C278 143.34 278 142.68 278 142 C277.34 142 276.68 142 276 142 C276 141.34 276 140.68 276 140 C275.34 140 274.68 140 274 140 C274 139.34 274 138.68 274 138 C273.34 138 272.68 138 272 138 C270.375 136.625 270.375 136.625 269 135 C269 134.34 269 133.68 269 133 C268.34 133 267.68 133 267 133 C267 132.34 267 131.68 267 131 C266.34 131 265.68 131 265 131 C265 130.34 265 129.68 265 129 C263.68 129 262.36 129 261 129 C261 129.66 261 130.32 261 131 C260.34 131 259.68 131 259 131 C258.731875 131.639375 258.46375 132.27875 258.1875 132.9375 C257 135 257 135 254 136 C254 136.66 254 137.32 254 138 C253.34 138 252.68 138 252 138 C252 138.66 252 139.32 252 140 C251.34 140 250.68 140 250 140 C250 140.66 250 141.32 250 142 C249.34 142 248.68 142 248 142 C247.731875 142.639375 247.46375 143.27875 247.1875 143.9375 C246 146 246 146 243 147 C243 147.66 243 148.32 243 149 C242.34 149 241.68 149 241 149 C241 149.66 241 150.32 241 151 C240.34 151 239.68 151 239 151 C239 151.66 239 152.32 239 153 C238.34 153 237.68 153 237 153 C237 153.66 237 154.32 237 155 C236.34 155 235.68 155 235 155 C234.731875 155.639375 234.46375 156.27875 234.1875 156.9375 C233 159 233 159 230 160 C230 160.66 230 161.32 230 162 C228.68 162 227.36 162 226 162 C226 162.66 226 163.32 226 164 C225.34 164 224.68 164 224 164 C224 165.32 224 166.64 224 168 C219.92857143 171 219.92857143 171 217 171 C217 171.66 217 172.32 217 173 C216.34 173 215.68 173 215 173 C215 173.66 215 174.32 215 175 C214.34 175 213.68 175 213 175 C212.67 176.32 212.34 177.64 212 179 C211.34 179 210.68 179 210 179 C210 179.66 210 180.32 210 181 C209.34 181 208.68 181 208 181 C208 181.66 208 182.32 208 183 C206.68 183.33 205.36 183.66 204 184 C204 184.66 204 185.32 204 186 C203.34 186 202.68 186 202 186 C201.690625 186.61875 201.38125 187.2375 201.0625 187.875 C200.375 189.25 199.6875 190.625 199 192 C198.34 192 197.68 192 197 192 C197 192.66 197 193.32 197 194 C195.68 194.33 194.36 194.66 193 195 C193 195.66 193 196.32 193 197 C192.34 197 191.68 197 191 197 C191 197.66 191 198.32 191 199 C190.34 199 189.68 199 189 199 C188.34 200.32 187.68 201.64 187 203 C178.42857143 203.28571429 178.42857143 203.28571429 175 201 C175 200.34 175 199.68 175 199 C174.34 199 173.68 199 173 199 C173 197.68 173 196.36 173 195 C172.21625 194.690625 171.4325 194.38125 170.625 194.0625 C168 193 168 193 166 192 C166 191.34 166 190.68 166 190 C165.34 190 164.68 190 164 190 C164 189.34 164 188.68 164 188 C163.34 188 162.68 188 162 188 C162 187.34 162 186.68 162 186 C161.34 186 160.68 186 160 186 C160 185.34 160 184.68 160 184 C159.34 184 158.68 184 158 184 C158 183.34 158 182.68 158 182 C157.01 181.67 156.02 181.34 155 181 C155 180.34 155 179.68 155 179 C154.34 179 153.68 179 153 179 C153 178.34 153 177.68 153 177 C152.34 177 151.68 177 151 177 C151 176.34 151 175.68 151 175 C150.34 175 149.68 175 149 175 C149 174.34 149 173.68 149 173 C148.34 173 147.68 173 147 173 C147 172.34 147 171.68 147 171 C146.360625 170.731875 145.72125 170.46375 145.0625 170.1875 C143 169 143 169 142 166 C141.34 166 140.68 166 140 166 C140 165.34 140 164.68 140 164 C139.34 164 138.68 164 138 164 C138 163.34 138 162.68 138 162 C137.34 162 136.68 162 136 162 C136 161.34 136 160.68 136 160 C135.360625 159.731875 134.72125 159.46375 134.0625 159.1875 C132 158 132 158 131 155 C130.34 155 129.68 155 129 155 C129 154.34 129 153.68 129 153 C128.34 153 127.68 153 127 153 C127 152.34 127 151.68 127 151 C126.34 151 125.68 151 125 151 C125 150.34 125 149.68 125 149 C124.401875 148.731875 123.80375 148.46375 123.1875 148.1875 C121.00152146 147.00082594 119.58667406 145.90400887 118 144 C118 143.34 118 142.68 118 142 C117.34 142 116.68 142 116 142 C116 141.34 116 140.68 116 140 C115.34 140 114.68 140 114 140 C114 139.34 114 138.68 114 138 C113.34 138 112.68 138 112 138 C112 137.34 112 136.68 112 136 C111.360625 135.731875 110.72125 135.46375 110.0625 135.1875 C108 134 108 134 107 131 C106.34 131 105.68 131 105 131 C105 130.34 105 129.68 105 129 C104.34 129 103.68 129 103 129 C103 128.34 103 127.68 103 127 C102.34 127 101.68 127 101 127 C101 126.34 101 125.68 101 125 C98.66785852 123.79371992 96.50357861 122.8345262 94 122 C92 119 92 119 92 116 C91.34 116 90.68 116 90 116 C90 115.34 90 114.68 90 114 C89.01 114 88.02 114 87 114 C87 113.34 87 112.68 87 112 C85.02 111.505 85.02 111.505 83 111 C83 110.34 83 109.68 83 109 C82.34 109 81.68 109 81 109 C81 108.34 81 107.68 81 107 C80.34 107 79.68 107 79 107 C79 106.34 79 105.68 79 105 C78.34 105 77.68 105 77 105 C77 104.34 77 103.68 77 103 C76.34 103 75.68 103 75 103 C72.375 100.625 72.375 100.625 70 98 C70 97.34 70 96.68 70 96 C69.34 96 68.68 96 68 96 C68 95.34 68 94.68 68 94 C67.34 94 66.68 94 66 94 C66 93.34 66 92.68 66 92 C65.34 92 64.68 92 64 92 C64 91.34 64 90.68 64 90 C63.34 90 62.68 90 62 90 C60.375 88.625 60.375 88.625 59 87 C59 86.34 59 85.68 59 85 C58.34 85 57.68 85 57 85 C57 84.34 57 83.68 57 83 C56.34 83 55.68 83 55 83 C55 82.34 55 81.68 55 81 C54.34 81 53.68 81 53 81 C53 80.34 53 79.68 53 79 C52.34 79 51.68 79 51 79 C51 78.34 51 77.68 51 77 C50.01 76.67 49.02 76.34 48 76 C48 75.34 48 74.68 48 74 C47.34 74 46.68 74 46 74 C46 73.34 46 72.68 46 72 C45.34 72 44.68 72 44 72 C44 71.34 44 70.68 44 70 C43.34 70 42.68 70 42 70 C42 69.34 42 68.68 42 68 C41.34 68 40.68 68 40 68 C40 67.34 40 66.68 40 66 C39.01 65.67 38.02 65.34 37 65 C37 64.34 37 63.68 37 63 C36.34 63 35.68 63 35 63 C35 62.34 35 61.68 35 61 C34.34 61 33.68 61 33 61 C33 60.34 33 59.68 33 59 C32.34 59 31.68 59 31 59 C31 58.34 31 57.68 31 57 C30.34 57 29.68 57 29 57 C29 56.34 29 55.68 29 55 C28.34 55 27.68 55 27 55 C25.375 53.625 25.375 53.625 24 52 C24 51.34 24 50.68 24 50 C22.68 49.34 21.36 48.68 20 48 C20 47.34 20 46.68 20 46 C19.34 46 18.68 46 18 46 C18 45.34 18 44.68 18 44 C17.34 44 16.68 44 16 44 C16 43.34 16 42.68 16 42 C14.515 41.505 14.515 41.505 13 41 C13 40.34 13 39.68 13 39 C12.34 39 11.68 39 11 39 C11 38.34 11 37.68 11 37 C10.34 37 9.68 37 9 37 C9 36.34 9 35.68 9 35 C8.401875 34.9175 7.80375 34.835 7.1875 34.75 C4.37067727 33.78423221 3.52200868 32.51131433 2 30 C2 29.34 2 28.68 2 28 C1.34 28 0.68 28 0 28 C0 27.34 0 26.68 0 26 C-0.66 26 -1.32 26 -2 26 C-2 25.34 -2 24.68 -2 24 C-2.598125 23.896875 -3.19625 23.79375 -3.8125 23.6875 C-6.31258286 22.90175967 -7.37535082 22.03081147 -9 20 C-9 19.34 -9 18.68 -9 18 C-9.66 18 -10.32 18 -11 18 C-11 14.04 -11 10.08 -11 6 C-10.34 6 -9.68 6 -9 6 C-8.67 4.68 -8.34 3.36 -8 2 C-5.36 2 -2.72 2 0 2 C0 1.34 0 0.68 0 0 Z " fill="#F9F9F9" transform="translate(70,73)"/>
<path d="M0 0 C5.10329727 -0.36308044 8.87463833 -0.58277658 13.5 1.8125 C16 4 16 4 18 7 C18 7.99 18 8.98 18 10 C18.928125 10.4640625 18.928125 10.4640625 19.875 10.9375 C21.25 11.625 22.625 12.3125 24 13 C24 13.66 24 14.32 24 15 C24.99 15 25.98 15 27 15 C29.1875 16.875 29.1875 16.875 31 19 C31 19.66 31 20.32 31 21 C31.66 21 32.32 21 33 21 C33.639375 21.969375 34.27875 22.93875 34.9375 23.9375 C36.71061007 27.24255225 36.71061007 27.24255225 40 28 C40 28.66 40 29.32 40 30 C40.66 30 41.32 30 42 30 C42 30.66 42 31.32 42 32 C42.66 32 43.32 32 44 32 C44 32.66 44 33.32 44 34 C44.639375 34.268125 45.27875 34.53625 45.9375 34.8125 C48 36 48 36 49 39 C49.66 39 50.32 39 51 39 C51 39.66 51 40.32 51 41 C51.66 41 52.32 41 53 41 C53 41.66 53 42.32 53 43 C53.66 43 54.32 43 55 43 C55 43.66 55 44.32 55 45 C55.66 45 56.32 45 57 45 C57 45.66 57 46.32 57 47 C58.485 47.495 58.485 47.495 60 48 C60 48.66 60 49.32 60 50 C60.66 50 61.32 50 62 50 C62 50.66 62 51.32 62 52 C62.66 52 63.32 52 64 52 C64 52.66 64 53.32 64 54 C64.66 54 65.32 54 66 54 C66 54.66 66 55.32 66 56 C66.66 56 67.32 56 68 56 C68 56.66 68 57.32 68 58 C68.639375 58.268125 69.27875 58.53625 69.9375 58.8125 C72 60 72 60 73 63 C75.00016466 64.20882096 75.00016466 64.20882096 77 65 C77 65.66 77 66.32 77 67 C77.66 67 78.32 67 79 67 C79 67.66 79 68.32 79 69 C79.639375 69.268125 80.27875 69.53625 80.9375 69.8125 C83 71 83 71 84 74 C84.86625 74.185625 84.86625 74.185625 85.75 74.375 C89.09937266 75.3053813 90.60710256 77.4983345 93 80 C95.12381362 81.83905649 97.26788581 83.65030776 99.42578125 85.44921875 C99.94527344 85.96097656 100.46476562 86.47273438 101 87 C101 87.66 101 88.32 101 89 C101.66 89 102.32 89 103 89 C104.68732277 90.98260426 106.35366057 92.9832342 108 95 C108.66 95.33 109.32 95.66 110 96 C110 96.66 110 97.32 110 98 C110.66 98 111.32 98 112 98 C112 98.66 112 99.32 112 100 C112.66 100 113.32 100 114 100 C114 100.66 114 101.32 114 102 C114.66 102 115.32 102 116 102 C116 102.66 116 103.32 116 104 C116.66 104 117.32 104 118 104 C119.625 105.375 119.625 105.375 121 107 C121 107.66 121 108.32 121 109 C121.66 109 122.32 109 123 109 C123 109.66 123 110.32 123 111 C123.66 111 124.32 111 125 111 C125 111.66 125 112.32 125 113 C125.66 113 126.32 113 127 113 C127 113.66 127 114.32 127 115 C127.66 115 128.32 115 129 115 C130.625 116.375 130.625 116.375 132 118 C132 118.66 132 119.32 132 120 C132.66 120 133.32 120 134 120 C134 120.66 134 121.32 134 122 C134.66 122 135.32 122 136 122 C136 122.66 136 123.32 136 124 C136.66 124 137.32 124 138 124 C138 124.66 138 125.32 138 126 C138.66 126 139.32 126 140 126 C140 126.66 140 127.32 140 128 C140.99 128.33 141.98 128.66 143 129 C143 129.66 143 130.32 143 131 C143.66 131 144.32 131 145 131 C145 131.66 145 132.32 145 133 C145.66 133 146.32 133 147 133 C147 133.66 147 134.32 147 135 C147.66 135 148.32 135 149 135 C149 135.66 149 136.32 149 137 C149.66 137 150.32 137 151 137 C151 137.66 151 138.32 151 139 C151.66 139 152.32 139 153 139 C153.60402685 147.79194631 153.60402685 147.79194631 151.6875 151.625 C147.34182456 153.84836883 142.78710293 153.46351314 138 153 C137.34 152.67 136.68 152.34 136 152 C136 151.34 136 150.68 136 150 C135.34 150 134.68 150 134 150 C134 149.34 134 148.68 134 148 C133.34 148 132.68 148 132 148 C129 144.53846154 129 144.53846154 129 142 C127.68 141.67 126.36 141.34 125 141 C125 140.34 125 139.68 125 139 C124.34 139 123.68 139 123 139 C123 138.34 123 137.68 123 137 C122.34 137 121.68 137 121 137 C121 136.34 121 135.68 121 135 C120.34 135 119.68 135 119 135 C118.67 133.68 118.34 132.36 118 131 C117.34 131 116.68 131 116 131 C116 130.34 116 129.68 116 129 C114.68 128.67 113.36 128.34 112 128 C112 127.34 112 126.68 112 126 C111.34 126 110.68 126 110 126 C110 125.34 110 124.68 110 124 C109.34 124 108.68 124 108 124 C107.67 122.68 107.34 121.36 107 120 C106.34 120 105.68 120 105 120 C105 119.34 105 118.68 105 118 C103.02 117.34 101.04 116.68 99 116 C99 115.01 99 114.02 99 113 C98.01 113 97.02 113 96 113 C96 112.34 96 111.68 96 111 C95.34 111 94.68 111 94 111 C94 110.34 94 109.68 94 109 C93.34 109 92.68 109 92 109 C92 108.34 92 107.68 92 107 C91.34 107 90.68 107 90 107 C90 106.34 90 105.68 90 105 C89.401875 104.9175 88.80375 104.835 88.1875 104.75 C85.37067727 103.78423221 84.52200868 102.51131433 83 100 C83 99.34 83 98.68 83 98 C82.34 98 81.68 98 81 98 C81 97.34 81 96.68 81 96 C80.34 96 79.68 96 79 96 C79 95.34 79 94.68 79 94 C77.02 93.505 77.02 93.505 75 93 C75 92.34 75 91.68 75 91 C74.34 91 73.68 91 73 91 C72.67 89.68 72.34 88.36 72 87 C70.02 86.505 70.02 86.505 68 86 C68 85.01 68 84.02 68 83 C66.02 82.505 66.02 82.505 64 82 C64 81.34 64 80.68 64 80 C63.34 80 62.68 80 62 80 C62 79.34 62 78.68 62 78 C61.34 78 60.68 78 60 78 C59.67 76.68 59.34 75.36 59 74 C58.34 74 57.68 74 57 74 C57 73.34 57 72.68 57 72 C55.68 72 54.36 72 53 72 C53 71.34 53 70.68 53 70 C52.360625 69.731875 51.72125 69.46375 51.0625 69.1875 C49 68 49 68 48 65 C47.34 65 46.68 65 46 65 C46 64.34 46 63.68 46 63 C45.34 63 44.68 63 44 63 C44 62.34 44 61.68 44 61 C43.34 61 42.68 61 42 61 C42 60.34 42 59.68 42 59 C41.360625 58.731875 40.72125 58.46375 40.0625 58.1875 C38 57 38 57 37 54 C36.34 54 35.68 54 35 54 C35 53.34 35 52.68 35 52 C34.34 52 33.68 52 33 52 C33 51.34 33 50.68 33 50 C32.34 50 31.68 50 31 50 C31 49.34 31 48.68 31 48 C30.443125 47.731875 29.88625 47.46375 29.3125 47.1875 C28.549375 46.795625 27.78625 46.40375 27 46 C26.0925 45.54625 25.185 45.0925 24.25 44.625 C23.5075 44.08875 22.765 43.5525 22 43 C22 41.68 22 40.36 22 39 C21.34 39 20.68 39 20 39 C20 38.34 20 37.68 20 37 C19.34 37 18.68 37 18 37 C18 36.34 18 35.68 18 35 C16.68 34.67 15.36 34.34 14 34 C13.67 32.68 13.34 31.36 13 30 C11.68 30 10.36 30 9 30 C9 101.94 9 173.88 9 248 C9.66 248 10.32 248 11 248 C11 248.99 11 249.98 11 251 C60.83 251 110.66 251 162 251 C162 251.66 162 252.32 162 253 C162.66 253 163.32 253 164 253 C165.4241906 255.84838121 165.16995508 258.32787908 165.1875 261.5 C165.20167969 262.6653125 165.21585938 263.830625 165.23046875 265.03125 C165 268 165 268 163 270 C160.20827293 270.24609566 160.20827293 270.24609566 156.57138062 270.24050903 C155.57038879 270.24307231 155.57038879 270.24307231 154.5491749 270.24568737 C152.30269515 270.2489938 150.05651104 270.23795988 147.81005859 270.22705078 C146.20387275 270.22648692 144.5976864 270.22680275 142.99150085 270.22793579 C138.62187909 270.22851127 134.2523664 270.21672553 129.88277006 270.20278788 C125.3196896 270.1903129 120.75660684 270.18911258 116.19351196 270.18673706 C107.54851675 270.18051276 98.90357192 270.16408913 90.25859892 270.14403808 C80.41835989 270.12170858 70.57811849 270.11069308 60.73786044 270.10064721 C40.4918788 270.0797237 20.24594257 270.04452932 0 270 C0 269.34 0 268.68 0 268 C-1.32 268 -2.64 268 -4 268 C-4 267.34 -4 266.68 -4 266 C-4.66 266 -5.32 266 -6 266 C-10.22281905 259.66577142 -10.28881962 253.43249496 -10.24723816 246.05361938 C-10.24965257 245.06829141 -10.25206699 244.08296344 -10.25455457 243.06777704 C-10.2601782 239.77509718 -10.25153859 236.48261247 -10.24291992 233.18994141 C-10.24399309 230.82602893 -10.2459323 228.4621167 -10.24867249 226.09820557 C-10.25351674 219.68550829 -10.24587147 213.27288068 -10.23571944 206.86019182 C-10.22694692 200.83498051 -10.22855706 194.80976605 -10.22899476 188.78455 C-10.22949489 176.85228547 -10.22034512 164.92004781 -10.20581055 152.98779297 C-10.19170509 141.4018505 -10.18464062 129.81593164 -10.18530273 118.22998047 C-10.18534269 117.515506 -10.18538265 116.80103153 -10.18542381 116.06490631 C-10.18548435 114.99506599 -10.18548435 114.99506599 -10.1855461 113.90361273 C-10.18623508 100.71654103 -10.18035331 87.52947938 -10.17139288 74.34241093 C-10.16837221 69.67453801 -10.16732384 65.00666837 -10.16686058 60.33879471 C-10.16585985 54.06631888 -10.15978548 47.79386805 -10.14969444 41.52140045 C-10.1467614 39.21263405 -10.14554569 36.90386478 -10.14612198 34.59509659 C-10.1466089 31.45819696 -10.14099457 28.32136852 -10.13371277 25.18447876 C-10.13526137 24.25833885 -10.13680997 23.33219894 -10.1384055 22.37799418 C-10.11417904 16.11417904 -10.11417904 16.11417904 -9 15 C-8.63239269 12.67182036 -8.29758419 10.3381615 -8 8 C-7.34 8 -6.68 8 -6 8 C-6 6.68 -6 5.36 -6 4 C-4.68 4 -3.36 4 -2 4 C-2 3.34 -2 2.68 -2 2 C-1.34 2 -0.68 2 0 2 C0 1.34 0 0.68 0 0 Z " fill="#FAFAFA" transform="translate(94,174)"/>
<path d="M0 0 C0.66 0.33 1.32 0.66 2 1 C1.34 2.98 0.68 4.96 0 7 C-1.65 7.33 -3.3 7.66 -5 8 C-4.64950425 4.75791433 -4.43778819 3.38472296 -1.9375 1.1875 C-1.298125 0.795625 -0.65875 0.40375 0 0 Z " fill="#F3F4F3" transform="translate(152,170)"/>
<path d="M0 0 C0.99 0 1.98 0 3 0 C3 0.66 3 1.32 3 2 C3.66 2 4.32 2 5 2 C5 2.66 5 3.32 5 4 C5.99 4 6.98 4 8 4 C8 5.32 8 6.64 8 8 C7.34 8 6.68 8 6 8 C6 7.34 6 6.68 6 6 C5.34 6 4.68 6 4 6 C4 5.34 4 4.68 4 4 C2.68 3.34 1.36 2.68 0 2 C0 1.34 0 0.68 0 0 Z " fill="#E8EBEB" transform="translate(216,215)"/>
<path d="M0 0 C0.66 0.33 1.32 0.66 2 1 C1.1875 2.9375 1.1875 2.9375 0 5 C-0.99 5.33 -1.98 5.66 -3 6 C-3 4.35 -3 2.7 -3 1 C-2.01 0.67 -1.02 0.34 0 0 Z " fill="#F3F3F3" transform="translate(222,87)"/>
<path d="M0 0 C0.33 0.99 0.66 1.98 1 3 C1.66 3 2.32 3 3 3 C2.34 4.32 1.68 5.64 1 7 C0.01 6.34 -0.98 5.68 -2 5 C-1.34 3.35 -0.68 1.7 0 0 Z " fill="#ECECEC" transform="translate(338,248)"/>
<path d="M0 0 C1.32 0.66 2.64 1.32 4 2 C4 2.66 4 3.32 4 4 C2.02 4 0.04 4 -2 4 C-2.33 3.34 -2.66 2.68 -3 2 C-2.01 2 -1.02 2 0 2 C0 1.34 0 0.68 0 0 Z " fill="#F0F0F0" transform="translate(352,227)"/>
</svg>
